With: Paola Seganti, Lea Bosco en Hardy Krüger Jr.

De koerier Michael Strogoff wordt door de tsaar naar Siberië gestuurd met een belangrijke mededeling voor de bevolking. Ondanks zijn vermomming als koopman, valt Strogoff tijdens de reis in de handen van de verraderlijke Ogareff, aanhanger van de Tartaren. Naar het gelijknamige boek van Jules Verne.

Ever since the death of his wife, the famous and once highly-respected general Michael Strogoff has fallen steadily into a state of decrepitude. The Tartars have again overrun the empire's ...
 
http://www.imdb.com/title/tt0169475	

------------------------ Dutch Friends ------------------------
---------------------------------------------------------------
- Bezoek ook eens mijn vrienden op:  http://www.Film-Test.nl --
----- voor mijn Nederlandse Sync. ondertitels ---- en meer ----
------- http://www.Film-Test.nl ---- Over Films en meer -------
---------------------------------------------------------------

General:

Complete name                    : Michele StrogoffDeel 01.avi
Format                           : AVI
Format/Info                      : Audio Video Interleave
File size                        : 1.64 GiB
Duration                         : 1h 29mn
Overall bit rate                 : 2 611 Kbps

Video:

Format                           : MPEG-4 Visual
Format profile                   : Simple@L3
Format settings, BVOP            : No
Format settings, QPel            : No
Format settings, GMC             : No warppoints
Format settings, Matrix          : Default (H.263)
Codec ID                         : XVID
Codec ID/Hint                    : XviD
Duration                         : 1h 29mn
Bit rate                         : 2 152 Kbps
Width                            : 704 pixels
Height                           : 396 pixels
Display aspect ratio             : 16:9
Frame rate                       : 25.000 fps
Color space                      : YUV
Chroma subsampling               : 4:2:0
Bit depth                        : 8 bits
Scan type                        : Progressive
Compression mode                 : Lossy
Bits/(Pixel*Frame)               : 0.309
Stream size                      : 1.35 GiB (82%)
Writing library                  : XviD 1.1.2 (UTC 2006-11-01)

Audio:

Format                           : AC-3
Format/Info                      : Audio Coding 3
Mode extension                   : CM (complete main)
Codec ID                         : 2000
Duration                         : 1h 29mn
Bit rate mode                    : Constant
Bit rate                         : 448 Kbps
Channel(s)                       : 6 channels
Channel positions                : Front: L C R, Side: L R, LFE
Sampling rate                    : 48.0 KHz
Bit depth                        : 16 bits
Compression mode                 : Lossy
Stream size                      : 288 MiB (17%)
Alignment                        : Aligned on interleaves
Interleave, duration             : 32 ms (0.80 video frame)
Interleave, preload duration     : 192 ms